<svg xmlns="http://www.w3.org/2000/svg" viewBox="0 0 229.49 61.54"><defs><style>.cls-1{fill:#00b5de;}.cls-2{fill:#00decc;}.cls-3{fill:#ff5529;}.cls-4{fill:#ff9640;}.cls-5{fill:#102c53;}</style></defs><g id="Layer_2" data-name="Layer 2"><g id="brand_guides" data-name="brand guides"><g id="logo_on_light" data-name="logo on light"><polygon class="cls-1" points="59.29 5.95 29.58 5.95 25.56 12.4 46.94 25.7 46.94 25.7 46.94 25.71 59.29 5.95"/><polygon class="cls-2" points="25.56 12.4 5.62 0 5.62 29.71 12.49 33.72 46.94 25.7 46.94 25.7 25.56 12.4"/><polygon class="cls-3" points="47.06 27.82 47.06 27.82 47.07 27.82 47.06 27.82"/><polygon class="cls-3" points="53.47 31.83 47.07 27.82 33.65 49.15 53.47 61.54 53.47 31.83"/><polygon class="cls-4" points="47.07 27.82 47.07 27.82 47.06 27.82 12.35 35.98 0 55.41 29.71 55.41 33.65 49.15 47.07 27.82 47.07 27.82"/><path class="cls-5" d="M107.66,47.8l0-18.84L98.37,44.48H95.1L85.9,29.37V47.8H79.08V16.4h6L96.85,35.92,108.42,16.4h6l.09,31.4Z"/><path class="cls-5" d="M121.82,32.1c0-9.33,7.27-16.24,17.18-16.24s17.18,6.87,17.18,16.24S148.87,48.34,139,48.34,121.82,41.43,121.82,32.1Zm27,0c0-6-4.22-10-9.83-10s-9.82,4.09-9.82,10.05,4.21,10,9.82,10S148.83,38.07,148.83,32.1Z"/><path class="cls-5" d="M163.59,16.4h14.26c10.27,0,17.32,6.19,17.32,15.7s-7,15.7-17.32,15.7H163.59Zm13.9,25.44c6.24,0,10.32-3.73,10.32-9.74s-4.08-9.73-10.32-9.73h-6.64V41.84Z"/><path class="cls-5" d="M221.1,47.8l-7.58-10.9-7.45,10.9h-8.34l11.61-16-11-15.43h8.25l7.22,10.18,7.09-10.18h7.85L217.78,31.56,229.49,47.8Z"/></g></g></g></svg>