<?xml version="1.0" encoding="utf-8"?>
<!-- Generator: Adobe Illustrator 18.0.0, SVG Export Plug-In . SVG Version: 6.00 Build 0)  -->
<!DOCTYPE svg PUBLIC "-//W3C//DTD SVG 1.1//EN" "http://www.w3.org/Graphics/SVG/1.1/DTD/svg11.dtd">
<svg version="1.1" id="Layer_1" xmlns="http://www.w3.org/2000/svg" xmlns:xlink="http://www.w3.org/1999/xlink" x="0px" y="0px"
	 viewBox="0 0 32 32" enable-background="new 0 0 32 32" xml:space="preserve">
<g>
	<linearGradient id="SVGID_1_" gradientUnits="userSpaceOnUse" x1="28.9818" y1="8.9895" x2="17.3025" y2="1.3844">
		<stop  offset="0" style="stop-color:#80C3E6"/>
		<stop  offset="1" style="stop-color:#3380C2"/>
	</linearGradient>
	<polygon fill="url(#SVGID_1_)" points="25,13.4 32,3 16,3 13.6,6.9 	"/>
	<polygon opacity="0.15" points="13.6,6.9 14.9,4.8 25,13.4 	"/>
	<linearGradient id="SVGID_2_" gradientUnits="userSpaceOnUse" x1="31.1791" y1="26.3249" x2="22.2643" y2="20.4377">
		<stop  offset="0" style="stop-color:#F38649"/>
		<stop  offset="0.1849" style="stop-color:#F28147"/>
		<stop  offset="0.4091" style="stop-color:#EF7242"/>
		<stop  offset="0.6537" style="stop-color:#EA5A3A"/>
		<stop  offset="0.911" style="stop-color:#E4382E"/>
		<stop  offset="1" style="stop-color:#E12A29"/>
	</linearGradient>
	<polygon fill="url(#SVGID_2_)" points="29,32 29,17 25.1,14.5 18,25.5 	"/>
	<polygon opacity="0.15" points="18,25.5 19.8,26.6 25.1,14.5 	"/>
	<linearGradient id="SVGID_3_" gradientUnits="userSpaceOnUse" x1="2.3503" y1="13.9602" x2="18.9018" y2="3.6177">
		<stop  offset="0" style="stop-color:#42AB4A"/>
		<stop  offset="1" style="stop-color:#ADD155"/>
	</linearGradient>
	<polygon fill="url(#SVGID_3_)" points="3,0 3,15 7.1,17.5 25,13.4 	"/>
	<linearGradient id="SVGID_4_" gradientUnits="userSpaceOnUse" x1="5.7535" y1="32.5952" x2="19.3224" y2="10.8803">
		<stop  offset="0" style="stop-color:#42AB4A"/>
		<stop  offset="1" style="stop-color:#ADD155"/>
	</linearGradient>
	<polygon fill="url(#SVGID_4_)" points="7,18.7 0,29 16,29 25.1,14.5 	"/>
</g>
</svg>
