<svg xmlns="http://www.w3.org/2000/svg" viewBox="0 0 120.21 124.76"><defs><style>.cls-1{fill:#00b5de;}.cls-2{fill:#00decc;}.cls-3{fill:#ff5529;}.cls-4{fill:#ff9640;}</style></defs><g id="Layer_2" data-name="Layer 2"><g id="Logo_Icon_Variations" data-name="Logo Icon Variations"><g id="MODX-logo-icon-color"><polygon class="cls-1" points="120.21 12.05 59.97 12.05 51.81 25.15 95.16 52.11 95.16 52.11 95.17 52.12 120.21 12.05"/><polygon class="cls-2" points="51.81 25.15 11.39 0 11.39 60.23 25.33 68.36 95.16 52.11 95.16 52.11 51.81 25.15"/><polygon class="cls-3" points="95.42 56.41 95.42 56.41 95.42 56.41 95.42 56.41"/><polygon class="cls-3" points="108.41 64.53 95.42 56.41 68.22 99.64 108.41 124.76 108.41 64.53"/><polygon class="cls-4" points="95.43 56.41 95.42 56.41 95.42 56.41 25.04 72.95 0 112.34 60.23 112.34 68.22 99.64 95.42 56.41 95.43 56.41"/></g></g></g></svg>