<?xml version="1.0" encoding="utf-8"?>
<!-- Generator: Adobe Illustrator 18.0.0, SVG Export Plug-In . SVG Version: 6.00 Build 0)  -->
<!DOCTYPE svg PUBLIC "-//W3C//DTD SVG 1.1//EN" "http://www.w3.org/Graphics/SVG/1.1/DTD/svg11.dtd">
<svg version="1.1" id="Layer_1" xmlns="http://www.w3.org/2000/svg" xmlns:xlink="http://www.w3.org/1999/xlink" x="0px" y="0px"
	 viewBox="193.9 294.8 199.9 62.1" enable-background="new 193.9 294.8 199.9 62.1" xml:space="preserve">
<g>
	<g>
		
			<linearGradient id="SVGID_1_" gradientUnits="userSpaceOnUse" x1="82.8818" y1="787.5103" x2="75.47" y2="792.3366" gradientTransform="matrix(3 0 0 -3 0 2674.5)">
			<stop  offset="0" style="stop-color:#80C3E6"/>
			<stop  offset="1" style="stop-color:#3380C2"/>
		</linearGradient>
		<polygon fill="url(#SVGID_1_)" points="241.3,320.8 253.7,300.9 223.8,300.9 219.6,307.5 		"/>
		<polygon opacity="0.15" enable-background="new    " points="219.6,307.5 221.8,304.1 241.3,320.8 		"/>
		
			<linearGradient id="SVGID_2_" gradientUnits="userSpaceOnUse" x1="84.177" y1="776.3555" x2="78.6364" y2="780.0144" gradientTransform="matrix(3 0 0 -3 0 2674.5)">
			<stop  offset="0" style="stop-color:#F38649"/>
			<stop  offset="0.1849" style="stop-color:#F28147"/>
			<stop  offset="0.4091" style="stop-color:#EF7242"/>
			<stop  offset="0.6537" style="stop-color:#EA5A3A"/>
			<stop  offset="0.911" style="stop-color:#E4382E"/>
			<stop  offset="1" style="stop-color:#E12A29"/>
		</linearGradient>
		<polygon fill="url(#SVGID_2_)" points="247.8,356.9 247.8,327 241.4,322.9 227.8,344.4 		"/>
		<polygon opacity="0.15" enable-background="new    " points="227.8,344.4 231.2,346.5 241.4,322.9 		"/>
		
			<linearGradient id="SVGID_3_" gradientUnits="userSpaceOnUse" x1="65.9263" y1="784.178" x2="76.526" y2="790.8015" gradientTransform="matrix(3 0 0 -3 0 2674.5)">
			<stop  offset="0" style="stop-color:#42AB4A"/>
			<stop  offset="1" style="stop-color:#ADD155"/>
		</linearGradient>
		<polygon fill="url(#SVGID_3_)" points="199.5,294.8 199.5,324.8 206.6,328.9 241.3,320.8 		"/>
		
			<linearGradient id="SVGID_4_" gradientUnits="userSpaceOnUse" x1="68.25" y1="772.3372" x2="76.8645" y2="786.1234" gradientTransform="matrix(3 0 0 -3 0 2674.5)">
			<stop  offset="0" style="stop-color:#42AB4A"/>
			<stop  offset="1" style="stop-color:#ADD155"/>
		</linearGradient>
		<polygon fill="url(#SVGID_4_)" points="206.4,331.2 193.9,350.7 223.9,350.7 241.4,322.9 		"/>
	</g>
	<g>
		<path d="M259.4,340h3.9l2-24.4h-4v-3.4h8.8l8,19.1c0.5,1.3,0.7,2.3,0.7,2.3h0.1c0,0,0.2-1,0.7-2.3l8-19.1h8.8v3.4h-4l2,24.4h3.9
			v3.5h-12V340h3.7l-1.4-18.7c0-1,0.1-2.6,0.1-2.6h-0.1c0,0-0.4,1.5-0.7,2.4l-7.1,16.5H277l-7.1-16.5c-0.4-0.9-0.7-2.4-0.7-2.4h-0.1
			c0,0,0.2,1.6,0.1,2.6l-1.4,18.7h3.7v3.5h-12V340z"/>
		<path d="M316.8,311.6c9,0,16,7,16,16c0,9.2-7,16.4-16,16.4s-16-7.2-16-16.4C300.8,318.6,307.8,311.6,316.8,311.6z M316.8,340.1
			c6.3,0,11.4-5.4,11.4-12.5c0-6.8-5.1-12.1-11.4-12.1s-11.5,5.2-11.5,12.1C305.3,334.6,310.5,340.1,316.8,340.1z"/>
		<path d="M335.8,340h3.9v-24.4h-3.9v-3.4h13.3c2.6,0,4.5,0.1,6.6,0.8c5.9,1.9,9.8,7.3,9.8,14.9c0,7.6-3.7,12.9-9.8,14.8
			c-2,0.7-4.1,0.8-6.6,0.8h-13.3V340z M348.9,339.8c2,0,3.7-0.2,5.3-0.8c4.2-1.5,6.8-5.5,6.8-11.2c0-5.8-2.6-9.8-6.7-11.3
			c-1.7-0.6-3.3-0.7-5.3-0.7h-4.8v24H348.9z"/>
		<path d="M367.1,340h2.9l8-12.4l-7.9-12.1h-2.9v-3.4h9.8v3.4h-2.3l5.2,8.2c0.5,0.7,0.8,1.2,0.8,1.2h0.1c0,0,0.3-0.6,0.7-1.2l5-8.2
			h-2.2v-3.4h9.5v3.4h-2.9l-8.1,12.5l7.9,12h3v3.5h-9.8V340h2.3l-5.2-8.2c-0.5-0.7-0.8-1.3-0.8-1.3h-0.1c0,0-0.3,0.6-0.7,1.3l-5,8.2
			h2.3v3.5h-9.6V340z"/>
	</g>
</g>
</svg>
