<?xml version="1.0" encoding="utf-8"?>
<!-- Generator: Adobe Illustrator 22.1.0, SVG Export Plug-In . SVG Version: 6.00 Build 0)  -->
<svg version="1.1" id="Layer_1" xmlns="http://www.w3.org/2000/svg" xmlns:xlink="http://www.w3.org/1999/xlink" x="0px" y="0px"
	 viewBox="0 0 100 100" style="enable-background:new 0 0 100 100;" xml:space="preserve">
<style type="text/css">
	.st0{fill:#A7A9AC;}
</style>
<g>
	<path class="st0" d="M76.7,28.9h7c0.6,0,1.1-0.5,1.1-1.1c0-0.6-0.5-1.1-1.1-1.1h-7c-0.6,0-1.1,0.5-1.1,1.1
		C75.6,28.4,76.1,28.9,76.7,28.9z"/>
	<path class="st0" d="M94,26.7h-3.3c-0.6,0-1.1,0.5-1.1,1.1c0,0.6,0.5,1.1,1.1,1.1h2.2v2.2c0,0.6,0.5,1.1,1.1,1.1
		c0.6,0,1.1-0.5,1.1-1.1v-3.3C95.1,27.2,94.6,26.7,94,26.7z"/>
	<path class="st0" d="M94,52c-0.6,0-1.1,0.5-1.1,1.1v7.3c0,0.6,0.5,1.1,1.1,1.1c0.6,0,1.1-0.5,1.1-1.1v-7.3C95.1,52.5,94.6,52,94,52
		z"/>
	<path class="st0" d="M94,66.6c-0.6,0-1.1,0.5-1.1,1.1v7.3c0,0.6,0.5,1.1,1.1,1.1c0.6,0,1.1-0.5,1.1-1.1v-7.3
		C95.1,67.1,94.6,66.6,94,66.6z"/>
	<path class="st0" d="M94,37.3c-0.6,0-1.1,0.5-1.1,1.1v7.3c0,0.6,0.5,1.1,1.1,1.1c0.6,0,1.1-0.5,1.1-1.1v-7.3
		C95.1,37.8,94.6,37.3,94,37.3z"/>
	<path class="st0" d="M94,81.3c-0.6,0-1.1,0.5-1.1,1.1v2.2h-2.2c-0.6,0-1.1,0.5-1.1,1.1c0,0.6,0.5,1.1,1.1,1.1H94
		c0.6,0,1.1-0.5,1.1-1.1v-3.3C95.1,81.8,94.6,81.3,94,81.3z"/>
	<path class="st0" d="M59.4,84.6h-6.2c-0.6,0-1.1,0.5-1.1,1.1c0,0.6,0.5,1.1,1.1,1.1h6.2c0.6,0,1.1-0.5,1.1-1.1
		C60.5,85.1,60.1,84.6,59.4,84.6z"/>
	<path class="st0" d="M47,84.6h-6.2c-0.6,0-1.1,0.5-1.1,1.1c0,0.6,0.5,1.1,1.1,1.1H47c0.6,0,1.1-0.5,1.1-1.1
		C48.1,85.1,47.6,84.6,47,84.6z"/>
	<path class="st0" d="M34.5,84.6h-6.2c-0.6,0-1.1,0.5-1.1,1.1c0,0.6,0.5,1.1,1.1,1.1h6.2c0.6,0,1.1-0.5,1.1-1.1
		C35.6,85.1,35.1,84.6,34.5,84.6z"/>
	<path class="st0" d="M22,84.6h-6.2c-0.6,0-1.1,0.5-1.1,1.1c0,0.6,0.5,1.1,1.1,1.1H22c0.6,0,1.1-0.5,1.1-1.1
		C23.1,85.1,22.6,84.6,22,84.6z"/>
	<path class="st0" d="M71.9,84.6h-6.2c-0.6,0-1.1,0.5-1.1,1.1c0,0.6,0.5,1.1,1.1,1.1h6.2c0.6,0,1.1-0.5,1.1-1.1
		C73,85.1,72.6,84.6,71.9,84.6z"/>
	<path class="st0" d="M84.4,84.6h-6.2c-0.6,0-1.1,0.5-1.1,1.1c0,0.6,0.5,1.1,1.1,1.1h6.2c0.6,0,1.1-0.5,1.1-1.1
		C85.5,85.1,85,84.6,84.4,84.6z"/>
	<path class="st0" d="M9.5,84.6H7.3v-2.2c0-0.6-0.5-1.1-1.1-1.1c-0.6,0-1.1,0.5-1.1,1.1v3.3c0,0.6,0.5,1.1,1.1,1.1h3.3
		c0.6,0,1.1-0.5,1.1-1.1C10.6,85.1,10.1,84.6,9.5,84.6z"/>
	<path class="st0" d="M6.2,61.5c0.6,0,1.1-0.5,1.1-1.1v-7.3c0-0.6-0.5-1.1-1.1-1.1c-0.6,0-1.1,0.5-1.1,1.1v7.3
		C5.1,61,5.6,61.5,6.2,61.5z"/>
	<path class="st0" d="M6.2,46.9c0.6,0,1.1-0.5,1.1-1.1v-7.3c0-0.6-0.5-1.1-1.1-1.1c-0.6,0-1.1,0.5-1.1,1.1v7.3
		C5.1,46.4,5.6,46.9,6.2,46.9z"/>
	<path class="st0" d="M6.2,76.2c0.6,0,1.1-0.5,1.1-1.1v-7.3c0-0.6-0.5-1.1-1.1-1.1c-0.6,0-1.1,0.5-1.1,1.1v7.3
		C5.1,75.7,5.6,76.2,6.2,76.2z"/>
	<path class="st0" d="M9.5,26.7H6.2c-0.6,0-1.1,0.5-1.1,1.1v3.3c0,0.6,0.5,1.1,1.1,1.1s1.1-0.5,1.1-1.1v-2.2l2.2,0
		c0.6,0,1.1-0.5,1.1-1.1S10.1,26.7,9.5,26.7z"/>
	<path class="st0" d="M36.7,33.9c3,0,5.4-2.4,5.4-5.4S39.7,23,36.7,23s-5.4,2.4-5.4,5.4C31.2,31.5,33.7,33.9,36.7,33.9z M36.7,25.2
		c1.8,0,3.2,1.5,3.2,3.2s-1.5,3.2-3.2,3.2c-1.8,0-3.2-1.5-3.2-3.2S34.9,25.2,36.7,25.2z"/>
	<path class="st0" d="M79.5,68.3c0,0.6,0.5,1.1,1.1,1.1s1.1-0.5,1.1-1.1v-3.7c0-4.2,0.1-10.4-4.7-17.9L74,42.2
		c-0.5-0.8-1.3-1.4-2.2-1.6c-0.5-0.1-1.1-0.1-1.6,0V28.9h2.4c0.6,0,1.1-0.5,1.1-1.1c0-0.6-0.5-1.1-1.1-1.1h-2.4V16.3
		c0-0.6-0.5-1.1-1.1-1.1h-46c-0.6,0-1.1,0.5-1.1,1.1v10.4h0l0,2.2h0v25.9c0,0.6,0.5,1.1,1.1,1.1H52c-0.6,0.6-1,1.2-1.1,2
		c-0.3,1.1-0.1,2.2,0.6,3.1l2.7,4.3c0.1,0.1,0.1,0.2,0.2,0.2c3.3,4.6,7.3,5.8,10.1,6.5c0.8,0.2,1.3,0.4,1.9,0.6
		c0.2,0,0.2,0.1,0.3,0.1c1.5,0.6,1.7,0.9,2.4,2.1l0.3,0.4c0.2,0.3,0.6,0.5,0.9,0.5c0.2,0,0.4-0.1,0.6-0.2c0.5-0.3,0.7-1,0.4-1.5
		l-0.3-0.4c-0.8-1.3-1.6-2.5-3.7-3c-0.6-0.3-1.3-0.5-2-0.7c-2.8-0.8-6.5-1.9-9.5-6.6l-2.3-3.6c-0.3-0.5-0.4-1-0.3-1.5
		c0.1-0.5,0.4-1,0.9-1.3c0.2-0.2,0.4-0.3,0.6-0.4c0.4-0.3,0.9-0.6,1-0.7c0,0,0.1,0.1,0.2,0.3l3.2,5c0.2,0.3,0.6,0.5,0.9,0.5
		c0.2,0,0.4-0.1,0.6-0.2c0.5-0.3,0.7-1,0.3-1.5l-2.7-4.2l-0.5-0.8l-0.9-1.4L54.7,51c-0.3-0.4-0.4-0.9-0.3-1.3
		c0.1-0.5,0.4-0.9,0.8-1.1c0,0,0.1,0,0.1-0.1h0.1c0.4-0.3,0.9-0.4,1.4-0.3c0.5,0.1,0.9,0.4,1.1,0.8l2.6,4l0.5,0.7
		c0.2,0.3,0.6,0.5,0.9,0.5c0.2,0,0.4-0.1,0.6-0.2c0.5-0.3,0.7-1,0.3-1.5l-0.6-0.9l-2.5-3.9c0,0,0,0,0,0l0.1,0c0,0-0.1-0.1-0.1-0.1
		c-0.4-0.7-0.2-1.5,0.5-2c0.7-0.5,1.6-0.3,2.1,0.5l2.4,3.7l0.7,1c0.2,0.2,0.4,0.4,0.7,0.5c0.1,0,0.1,0,0.2,0c0.2,0,0.4-0.1,0.6-0.2
		c0.3-0.2,0.5-0.5,0.5-0.8c0-0.2,0-0.4-0.2-0.6l-0.7-1.2L64.5,46c-0.2-0.4-0.3-0.8-0.2-1.1c0.1-0.4,0.3-0.7,0.7-1
		c0.4-0.2,0.8-0.3,1.1-0.2c0.4,0.1,0.7,0.3,1,0.7l1,1.6l0,0.1l1.6,2.6l0.3,0.5c0.2,0.3,0.6,0.5,0.9,0.5c0.2,0,0.4-0.1,0.6-0.2
		c0.5-0.3,0.7-1,0.3-1.5l-1.6-2.5l-0.5-0.7c-0.2-0.3-0.3-0.7-0.2-1.1c0.1-0.4,0.3-0.7,0.6-0.9c0,0,0,0,0.1,0c0.3-0.2,0.7-0.2,1-0.2
		c0.4,0.1,0.7,0.3,0.9,0.6l2.9,4.6c4.6,7,4.5,12.9,4.5,16.7V68.3z M68.1,17.4v22.3L56.8,28.4c-0.4-0.4-1.1-0.4-1.6,0L39.9,43.7
		l-5.1-5.1c-0.4-0.4-1.1-0.4-1.6,0l-9,9l0-30.1H68.1z M66.6,41.6c-1-0.2-1.9-0.1-2.7,0.5c-0.1,0-0.1,0.1-0.1,0.1
		c-0.6,0.4-1.1,1-1.3,1.6c-1-0.5-2.3-0.4-3.3,0.2c-0.1,0-0.1,0.1-0.2,0.1c-0.5,0.3-1.6,1-1.8,2.2c-1-0.2-2.1-0.1-2.9,0.5l-0.1,0.1
		h-0.1c-0.9,0.7-1.5,1.5-1.7,2.5c-0.2,1-0.1,2.1,0.5,2.9l1,1.5H24.3v-3l9.8-9.7l5.1,5.1c0.4,0.4,1.1,0.4,1.5,0L56,30.8l10.9,10.9
		C66.8,41.7,66.7,41.6,66.6,41.6z"/>
	<path class="st0" d="M17.7,13v9.3v2.2v23.7c0,0.6,0.5,1.1,1.1,1.1s1.1-0.5,1.1-1.1v-1.9l0-3.1l0-14.2h0v-2.2h0l0-12.6
		c0-0.6,0.5-1.1,1.1-1.1h41.6c0.6,0,1.1-0.5,1.1-1.1v0c0-0.6-0.5-1.1-1.1-1.1H19.9C18.7,10.8,17.7,11.8,17.7,13z"/>
	<path class="st0" d="M15.5,43.8v-1.9l0-3.1l0-29c0-0.6,0.5-1.1,1.1-1.1h41.6c0.6,0,1.1-0.5,1.1-1.1v0c0-0.6-0.5-1.1-1.1-1.1H15.5
		c-1.2,0-2.2,1-2.2,2.2v9.3v2.2v23.7c0,0.6,0.5,1.1,1.1,1.1S15.5,44.4,15.5,43.8z"/>
</g>
</svg>
